<svg width="512" height="512" viewBox="0 0 512 512" xmlns="http://www.w3.org/2000/svg">
  <rect x="0" y="0" width="512" height="512" rx="112" fill="#252063"/>
  <g transform="translate(86,66) scale(3.4)">
    <path d="M50 6 C74 6 90 20 90 46 C90 76 62 102 50 106 C38 102 10 76 10 46 C10 20 26 6 50 6 Z" fill="#7F77DD" stroke="#9A93EC" stroke-width="3"/>
    <ellipse cx="38" cy="46" rx="9" ry="11" fill="#ffffff"/>
    <ellipse cx="62" cy="46" rx="9" ry="11" fill="#ffffff"/>
    <circle cx="39" cy="48" r="4.5" fill="#26215C"/>
    <circle cx="63" cy="48" r="4.5" fill="#26215C"/>
    <circle cx="40.5" cy="46" r="1.6" fill="#ffffff"/>
    <circle cx="64.5" cy="46" r="1.6" fill="#ffffff"/>
    <circle cx="28" cy="60" r="5" fill="#F0997B"/>
    <circle cx="72" cy="60" r="5" fill="#F0997B"/>
    <path d="M40 66 Q50 76 60 66" fill="none" stroke="#26215C" stroke-width="3.5" stroke-linecap="round"/>
  </g>
</svg>
